<?xml version="1.0" encoding="UTF-8" standalone="no"?>
<svg
   xmlns:dc="http://purl.org/dc/elements/1.1/"
   xmlns:cc="http://creativecommons.org/ns#"
   xmlns:rdf="http://www.w3.org/1999/02/22-rdf-syntax-ns#"
   xmlns:svg="http://www.w3.org/2000/svg"
   xmlns="http://www.w3.org/2000/svg"
   viewBox="0 0 652.10669 183"
   height="183"
   width="652.10669"
   xml:space="preserve"
   id="svg2"
   version="1.1"><metadata
     id="metadata8"><rdf:RDF><cc:Work
         rdf:about=""><dc:format>image/svg+xml</dc:format><dc:type
           rdf:resource="http://purl.org/dc/dcmitype/StillImage" /></cc:Work></rdf:RDF></metadata><defs
     id="defs6" /><g
     transform="matrix(1.3333333,0,0,-1.3333333,0,183)"
     id="g10"><g
       transform="scale(0.1)"
       id="g12"><path
         id="path14"
         style="fill:#231f20;fill-opacity:1;fill-rule:nonzero;stroke:none"
         d="m 2509.76,1370.52 c -137.08,0 -269.67,-41.66 -381.92,-117.64 v 61.55 H 1857.88 V 34.3516 h 0.04 v -1.793 H 2129.2 V 681.609 c 0,219.137 98.09,305.977 103.7,310.801 l 0.62,0.504 4.72,3.945 c 74.98,66.031 171.41,102.411 271.52,102.411 67.64,0 132.09,-15.88 191.46,-47.2 l 126.55,239.94 c -97.42,51.4 -207.37,78.51 -318.01,78.51" /><path
         id="path16"
         style="fill:#231f20;fill-opacity:1;fill-rule:nonzero;stroke:none"
         d="m 1653.78,34.3516 h -277.1 V 1314.43 h 277.1 V 34.3516" /><path
         id="path18"
         style="fill:#231f20;fill-opacity:1;fill-rule:nonzero;stroke:none"
         d="M 0,688.254 C 0,312.059 306.066,5.98828 682.285,5.98828 c 205.754,0 398.445,91.46092 528.675,250.97272 L 1000.87,428.543 C 922.371,332.398 806.234,277.262 682.285,277.262 c -226.656,0 -411.008,184.406 -411.008,410.992 0,226.625 184.352,411.016 411.008,411.016 100.11,0 196.5,-36.38 271.528,-102.411 L 1133.04,1200.45 C 1008.52,1310.15 848.418,1370.52 682.285,1370.52 306.066,1370.52 0,1064.47 0,688.254" /><path
         id="path20"
         style="fill:#231f20;fill-opacity:1;fill-rule:nonzero;stroke:none"
         d="m 3772.04,688.254 c 0,-275.59 -175.68,-413.383 -398.74,-413.383 -222.98,0 -414.35,185.07 -414.35,413.383 0,228.309 191.37,413.416 414.35,413.416 223.06,0 398.74,-138.236 398.74,-413.416 z m 252.56,1.621 v 374.965 c -160.76,121.65 -270.37,190.11 -270.37,190.11 -112.5,76.08 -245.7,117.52 -383.08,117.52 -377.25,0 -684.19,-306.91 -684.19,-684.189 0,-377.332 306.94,-684.17944 684.19,-684.17944 294.62,0 376.51,201.12844 381.59,204.50044 0,-21.551 0,-177.8207 0,-177.8207 h 271.98 V 681.57 c 0,2.871 -0.08,5.567 -0.12,8.305" /><path
         id="path22"
         style="fill:#d21c2d;fill-opacity:1;fill-rule:nonzero;stroke:none"
         d="m 4674.66,414.309 c -6.78,39.312 -19.42,76.457 -36.94,110.871 -3.34,0.144 -6.32,0.472 -9.62,0.472 -60.53,0 -113.79,-18.632 -160.02,-55.297 8.64,0.661 17.31,1.133 26.2,1.133 67.09,0 129.19,-21.316 180.38,-57.179 z m 138.66,33.796 c -17.15,17.106 -35.45,31.11 -54.75,42.575 -0.33,-45.137 -10.66,-87.754 -28.59,-126.219 48.75,-55.383 78.63,-127.891 78.63,-207.301 0,-35.32 -6.16,-69.16 -16.94,-100.8514 7.52,6.0703 14.58,12.3906 21.65,19.293 51.6,51.6484 77.46,114.1174 77.46,187.2694 0,71.82 -25.86,133.652 -77.46,185.234 z M 4675.03,283.59 c -55.53,-58.551 -133.82,-95.442 -220.75,-95.442 -28.26,0 -55.57,4.032 -81.51,11.364 10.57,-47.352 33.3,-88.684 68.29,-123.9104 21.32,-21.3203 45.04,-37.9297 70.65,-50.1524 85.11,59.3906 145.76,151.4998 163.32,258.1408 z M 4539.77,14.0391 C 4567.12,4.91016 4596.49,0 4628.1,0 c 24.79,0 48.25,3.16016 70.57,9.03906 C 4728.91,50.7305 4747,101.75 4747,157.16 c 0,52.512 -16.11,101.391 -43.63,141.918 -13.59,-116.137 -74.86,-217.7577 -163.6,-285.0389 z m 177.24,478.4999 c 0,6.098 -0.41,12.086 -0.91,18.098 -15.41,5.433 -31.57,9.504 -48.22,11.961 16.74,-36.379 28.47,-75.465 34.21,-116.469 9.51,27.144 14.92,56.168 14.92,86.41 z m -49,-152.187 c -45.41,43.054 -106.43,69.578 -173.73,69.578 -33.68,0 -65.82,-6.653 -95.32,-18.696 -22.14,-38.156 -33.47,-80.254 -33.47,-126.484 0,-6.641 0.42,-12.98 0.79,-19.48 27.48,-9.782 57.14,-15.442 88,-15.442 88.13,0 166.09,43.711 213.73,110.524" /></g></g></svg>